<svg width="24" height="24" viewBox="0 0 24 24" fill="none" xmlns="http://www.w3.org/2000/svg">
<path d="M8.87624 17.7525C6.39545 17.7525 4.2961 16.8931 2.57821 15.1743C0.860314 13.4555 0.000911107 11.3561 7.22527e-07 8.87624C-0.000909661 6.39635 0.858493 4.29701 2.57821 2.5782C4.29792 0.859399 6.39727 -3.8147e-06 8.87624 -3.8147e-06C11.3552 -3.8147e-06 13.455 0.859399 15.1756 2.5782C16.8963 4.29701 17.7552 6.39635 17.7525 8.87624C17.7525 9.87766 17.5932 10.8222 17.2745 11.7098C16.9559 12.5974 16.5235 13.3826 15.9772 14.0654L23.6245 21.7127C23.8748 21.963 24 22.2816 24 22.6686C24 23.0555 23.8748 23.3741 23.6245 23.6245C23.3741 23.8748 23.0555 24 22.6686 24C22.2816 24 21.963 23.8748 21.7127 23.6245L14.0654 15.9772C13.3826 16.5235 12.5974 16.9559 11.7098 17.2745C10.8222 17.5932 9.87767 17.7525 8.87624 17.7525ZM8.87624 15.0213C10.5832 15.0213 12.0344 14.4241 13.2297 13.2297C14.425 12.0353 15.0222 10.5841 15.0213 8.87624C15.0204 7.16836 14.4232 5.71766 13.2297 4.52415C12.0362 3.33064 10.585 2.73297 8.87624 2.73115C7.16745 2.72933 5.71676 3.32699 4.52415 4.52415C3.33155 5.7213 2.73388 7.172 2.73115 8.87624C2.72842 10.5805 3.32609 12.0316 4.52415 13.2297C5.72222 14.4278 7.17292 15.025 8.87624 15.0213Z" fill="black"/>
</svg>
